<svg xmlns="http://www.w3.org/2000/svg" viewBox="0 0 16 16" width="16" height="16">
  <g fill="#C5A028">
    <path d="M8 5.5A2.5 2.5 0 1 1 8 10.5 2.5 2.5 0 0 1 8 5.5zm0 1a1.5 1.5 0 1 0 0 3 1.5 1.5 0 0 0 0-3z"/>
    <path d="M9.9 1.6l.4 1.2c.3.1.6.3.9.5l1.2-.3.9 1.5-.9.9v1l.9.9-.9 1.5-1.2-.3c-.3.2-.6.4-.9.5l-.4 1.2H6.1l-.4-1.2a4 4 0 0 1-.9-.5l-1.2.3-.9-1.5.9-.9v-1l-.9-.9.9-1.5 1.2.3c.3-.2.6-.4.9-.5l.4-1.2h3.8zm-.7 1H6.8l-.35 1.05-.55.25c-.25.12-.48.27-.7.44l-.46.35-1.04-.26-.35.6.76.76-.04.61v.36l.04.61-.76.76.35.6 1.04-.26.46.35c.22.17.45.32.7.44l.55.25.35 1.05h2.45l.35-1.05.55-.25c.25-.12.48-.27.7-.44l.46-.35 1.04.26.35-.6-.76-.76.04-.61v-.36l-.04-.61.76-.76-.35-.6-1.04.26-.46-.35a3 3 0 0 0-.7-.44l-.55-.25L9.2 2.6z"/>
  </g>
</svg>
